<svg width="140" height="156" viewBox="0 0 140 156" fill="none" xmlns="http://www.w3.org/2000/svg">
<path d="M70 109H107V137C107 139.761 104.761 142 102 142H70V109Z" fill="#B8A520"/>
<path d="M27.9623 109.501C26.5185 107.495 26.8451 104.763 28.6626 103.088L71.6355 63.5L112.445 103.039C114.207 104.746 114.478 107.458 113.016 109.428C105.702 119.284 83.9014 147 70.0338 147C56.2004 147 35.103 119.42 27.9623 109.501Z" fill="#FFF089"/>
<path d="M53.4699 124.949C53.5146 124.911 53.558 124.871 53.5998 124.828C54.3146 124.099 54.3073 122.933 53.5835 122.223C52.8597 121.513 51.6935 121.528 50.9787 122.257C50.9093 122.328 50.8468 122.403 50.791 122.481C50.6135 121.788 50.053 121.229 49.3187 121.101C48.3252 120.928 47.3897 121.609 47.2292 122.623C47.1436 123.163 47.2955 123.689 47.6065 124.089C47.5309 124.093 47.4548 124.102 47.3786 124.115C46.3681 124.295 45.7049 125.244 45.8973 126.234C46.0896 127.224 47.0647 127.88 48.0751 127.7C48.1297 127.69 48.1832 127.678 48.2356 127.664C48.2225 127.717 48.2116 127.771 48.203 127.825C48.0424 128.839 48.7175 129.801 49.7109 129.975C50.7044 130.148 51.6399 129.467 51.8004 128.453C51.8147 128.363 51.8224 128.273 51.8238 128.184C52.2077 128.422 52.6795 128.526 53.1594 128.44C54.1698 128.26 54.833 127.312 54.6407 126.322C54.515 125.675 54.0553 125.17 53.4699 124.949Z" fill="white" fill-opacity="0.6"/>
<path d="M73.1447 133.25C73.1509 133.186 73.154 133.12 73.154 133.054C73.154 131.919 72.2408 131 71.1142 131C69.9877 131 69.0745 131.919 69.0745 133.054C69.0745 133.164 69.0831 133.272 69.0997 133.377C68.4201 132.966 67.5405 132.958 66.8583 133.428C65.9355 134.064 65.7236 135.332 66.385 136.261C66.7376 136.756 67.2672 137.055 67.8247 137.13C67.7681 137.192 67.7146 137.259 67.6646 137.329C67.0033 138.258 67.2152 139.526 68.138 140.162C69.0607 140.797 70.345 140.559 71.0064 139.63C71.042 139.58 71.0752 139.529 71.1058 139.477C71.1365 139.529 71.1696 139.58 71.2053 139.63C71.8667 140.559 73.1509 140.797 74.0737 140.162C74.9965 139.526 75.2084 138.258 74.547 137.329C74.4883 137.246 74.4247 137.169 74.3568 137.098C74.8464 136.988 75.3009 136.702 75.615 136.261C76.2764 135.332 76.0645 134.064 75.1417 133.428C74.5388 133.013 73.7817 132.971 73.1447 133.25Z" fill="white" fill-opacity="0.6"/>
<path d="M93.4699 124.949C93.5146 124.911 93.558 124.871 93.5998 124.828C94.3146 124.099 94.3073 122.933 93.5835 122.223C92.8597 121.513 91.6935 121.528 90.9787 122.257C90.9093 122.328 90.8468 122.403 90.791 122.481C90.6135 121.788 90.053 121.229 89.3187 121.101C88.3252 120.928 87.3897 121.609 87.2292 122.623C87.1436 123.163 87.2955 123.689 87.6065 124.089C87.5309 124.093 87.4548 124.102 87.3786 124.115C86.3681 124.295 85.7049 125.244 85.8973 126.234C86.0896 127.224 87.0647 127.88 88.0751 127.7C88.1297 127.69 88.1832 127.678 88.2356 127.664C88.2225 127.717 88.2116 127.771 88.203 127.825C88.0424 128.839 88.7175 129.801 89.7109 129.975C90.7044 130.148 91.6399 129.467 91.8004 128.453C91.8147 128.363 91.8224 128.273 91.8238 128.184C92.2077 128.422 92.6795 128.526 93.1594 128.44C94.1698 128.26 94.833 127.312 94.6407 126.322C94.515 125.675 94.0553 125.17 93.4699 124.949Z" fill="white" fill-opacity="0.6"/>
<path d="M13.139 115.382C33.847 131.925 57.5346 90.1968 57.5346 90.1968L36.4509 40.9425C36.4509 40.9425 -7.56911 98.8402 13.139 115.382Z" fill="#1DC651"/>
<path d="M126.532 115.382C105.824 131.925 82.1367 90.1968 82.1367 90.1968L103.654 40.4255C103.654 40.4255 147.24 98.8402 126.532 115.382Z" fill="#1DC651"/>
<g style="mix-blend-mode:multiply">
<path d="M18.2359 108.454C34.3359 121.315 52.7523 88.8725 52.7523 88.8725L36.3603 50.5786C36.3603 50.5786 2.13596 95.5925 18.2359 108.454Z" fill="#1DC651" fill-opacity="0.5"/>
</g>
<g style="mix-blend-mode:multiply">
<path d="M121.565 108.454C105.465 121.315 87.0489 88.8725 87.0489 88.8725L103.441 50.5786C103.441 50.5786 137.665 95.5925 121.565 108.454Z" fill="#1DC651" fill-opacity="0.5"/>
</g>
<path fill-rule="evenodd" clip-rule="evenodd" d="M61.8591 26.4016C63.0345 21.7772 65.1167 15.8105 67.9845 16.1292C71.5329 16.5235 72.375 22.9318 72.5748 25.9511H73.154C73.2273 25.9511 73.3006 25.9513 73.3739 25.9517C75.0601 22.5678 79.3346 14.9154 82.9759 16.1292C85.8375 17.0831 84.0055 22.7306 82.1711 26.937C100.675 31.0519 114.509 47.5636 114.509 67.3066V79.7133C114.509 102.553 95.994 121.069 73.154 121.069H67.9845C45.1445 121.069 26.629 102.553 26.629 79.7133V67.3066C26.629 46.5479 41.9238 29.3615 61.8591 26.4016Z" fill="#C0FFD3"/>
<path fill-rule="evenodd" clip-rule="evenodd" d="M34.902 104.533C51.1216 99.1939 62.8151 84.0816 62.8151 66.2727C62.8151 52.4221 55.742 40.2025 44.9675 32.9432C33.9078 40.3657 26.629 52.9862 26.629 67.3066V79.7133C26.629 89.0262 29.7073 97.6201 34.902 104.533Z" fill="#4ED678"/>
<path fill-rule="evenodd" clip-rule="evenodd" d="M106.237 104.533C90.0169 99.1939 78.3234 84.0816 78.3234 66.2727C78.3234 52.4221 85.3965 40.2025 96.171 32.9432C107.231 40.3657 114.509 52.9862 114.509 67.3066V79.7133C114.509 89.0262 111.431 97.6201 106.237 104.533Z" fill="#4ED678"/>
<ellipse cx="47.8237" cy="60.0694" rx="5.68638" ry="7.23721" fill="#744E1C"/>
<circle cx="45.239" cy="58.0016" r="2.06778" fill="white"/>
<ellipse cx="5.68638" cy="7.23721" rx="5.68638" ry="7.23721" transform="matrix(-1 0 0 1 96.9333 52.8322)" fill="#744E1C"/>
<circle cx="2.06778" cy="2.06778" r="2.06778" transform="matrix(-1 0 0 1 90.73 55.9339)" fill="white"/>
<path d="M63.849 88.9149L70.5693 84.8827L77.2895 88.9149V91.603C77.2895 95.3145 74.2808 98.3232 70.5693 98.3232C66.8578 98.3232 63.849 95.3145 63.849 91.603V88.9149Z" fill="#FEB1AA"/>
<path d="M79.3572 75.19C79.3572 77.6881 75.4227 79.7133 70.5692 79.7133C65.7157 79.7133 61.7811 77.6881 61.7811 75.19C61.7811 72.6919 65.7157 69.3744 70.5692 69.3744C75.4227 69.3744 79.3572 72.6919 79.3572 75.19Z" fill="#744E1C"/>
<circle cx="74.4463" cy="72.7345" r="1.29236" fill="white"/>
<path d="M70.5294 73.4304V82.5763C70.5294 85.5631 72.9507 87.9844 75.9374 87.9844H76.693C79.2625 87.9844 81.3455 85.9014 81.3455 83.3319V83.3319" stroke="#744E1C" stroke-width="2.27455" stroke-linecap="round" stroke-linejoin="round"/>
<path d="M70.5294 73.4304V82.5763C70.5294 85.5631 68.1082 87.9844 65.1214 87.9844H64.3659C61.7964 87.9844 59.7134 85.9014 59.7134 83.3319V83.3319" stroke="#744E1C" stroke-width="2.27455" stroke-linecap="round" stroke-linejoin="round"/>
<ellipse cx="43.1712" cy="74.5438" rx="8.2711" ry="5.16944" fill="#FFCABA"/>
<ellipse cx="96.9333" cy="74.5438" rx="8.2711" ry="5.16944" fill="#FFCABA"/>
</svg>
